<svg width="68" height="68" viewBox="0 0 52 52" fill="none"
  xmlns="http://www.w3.org/2000/svg">
  <path d="M19.4453 40.1304L11.8696 35.7566V44.5043L19.4453 40.1304ZM19.4453 40.1304L11.8696 35.7566V44.5043L19.4453 40.1304Z" stroke="#5A5A5A" stroke-width="2" stroke-miterlimit="10"/>
  <path d="M29.2609 29.2604H1V51H29.2609V29.2604Z" stroke="#5A5A5A" stroke-width="2" stroke-miterlimit="10"/>
  <path d="M51 1H11.8696V24.913H51V1Z" stroke="#5A5A5A" stroke-width="2" stroke-miterlimit="10"/>
  <path d="M25.7637 9.17584C27.0948 9.17584 28.1739 8.09675 28.1739 6.76563C28.1739 5.4345 27.0948 4.35541 25.7637 4.35541C24.4325 4.35541 23.3535 5.4345 23.3535 6.76563C23.3535 8.09675 24.4325 9.17584 25.7637 9.17584Z" stroke="#5A5A5A" stroke-width="2" stroke-miterlimit="10"/>
  <path d="M11.8696 21.0308L20.3762 12.8878L26.3308 18.5879L35.2627 10.0377L40.7921 15.3307L51 5.55896" stroke="#5A5A5A" stroke-width="2" stroke-miterlimit="10"/>
</svg>
